<svg width="250" height="250" viewBox="0 0 250 250" fill="none" xmlns="http://www.w3.org/2000/svg">
<g clip-path="url(#clip0_1075_22426)">
<rect width="250" height="250" fill="black"/>
<rect x="-1.38623" y="0.61377" width="250.772" height="250.772" rx="47.8573" fill="black"/>
<g clip-path="url(#clip1_1075_22426)">
<path d="M124.298 205.956C77.7256 205.445 51.6935 178.201 50.9936 129.206C50.6975 106.889 49.8898 47.5559 96.1123 46.1829H96.4354C108.307 46.1829 117.864 49.548 124.998 56.1973C131.055 50.5171 138.835 47.502 147.53 47.502C147.88 47.502 148.903 47.5289 148.903 47.5289C158.918 48.0674 167.371 52.2131 173.32 59.5086C181.181 69.1461 184.142 83.0371 182.285 101.854C192.434 112.327 201.102 129.959 195.045 158.63L194.964 158.98L194.857 159.303C186.511 189.535 162.875 205.229 124.594 205.929H124.433H124.271L124.298 205.956Z" fill="white"/>
<path d="M167.397 107.938C171.946 78.5942 165.351 64.2456 149.898 61.7689C133.854 61.2305 125.266 72.3217 125.239 96.7655C125.266 71.6487 114.282 60.7728 95.5457 59.9114C74.4939 62.3611 63.968 83.1707 65.4217 125.032C64.964 159.84 78.182 180.65 103.245 189.237C130.919 193.491 160.343 193.948 177.842 164.39C187.291 140.134 183.872 121.29 167.37 107.964L167.397 107.938Z" fill="#725BFF"/>
<path d="M99.6651 113.242C114.875 98.9746 133.773 93.2944 155.687 100.94C179.323 110.739 186.753 129.61 181.234 155.75C174.289 180.921 153.964 191.285 124.378 191.823C85.3703 191.393 65.7184 170.341 65.153 129.018C64.5339 82.8492 73.6599 60.9898 96.5692 60.3168C119.29 60.3168 124.943 76.496 124.028 99.0554" stroke="black" stroke-width="5.3841" stroke-linecap="round" stroke-linejoin="round"/>
<path d="M125.884 98.3802C124.834 75.2017 133.045 61.2299 148.201 61.6338C165.215 62.549 171.568 79.2936 167.449 106.833" stroke="black" stroke-width="5.3841" stroke-linecap="round" stroke-linejoin="round"/>
<path d="M134.027 141.939C136.57 141.939 138.631 139.878 138.631 137.336C138.631 134.793 136.57 132.732 134.027 132.732C131.485 132.732 129.424 134.793 129.424 137.336C129.424 139.878 131.485 141.939 134.027 141.939Z" fill="black"/>
<path d="M158.969 141.94C161.512 141.94 163.573 139.879 163.573 137.337C163.573 134.795 161.512 132.734 158.969 132.734C156.427 132.734 154.366 134.795 154.366 137.337C154.366 139.879 156.427 141.94 158.969 141.94Z" fill="black"/>
</g>
</g>
<defs>
<clipPath id="clip0_1075_22426">
<rect width="250" height="250" fill="white"/>
</clipPath>
<clipPath id="clip1_1075_22426">
<rect width="146.124" height="159.773" fill="white" transform="translate(50.9378 46.1829)"/>
</clipPath>
</defs>
</svg>
